<?xml version="1.0" encoding="UTF-8"?>
<svg id="Layer_2" data-name="Layer 2" xmlns="http://www.w3.org/2000/svg" viewBox="0 0 36.09 44.08">
  <g id="Layer_1-2" data-name="Layer 1">
    <path d="M36.09,41.97c0,.28-.04.55-.12.8-.08.25-.23.49-.45.71-.19.19-.41.34-.66.45-.25.11-.52.16-.8.16H2.02c-.28,0-.55-.06-.8-.16-.25-.11-.47-.26-.66-.45-.19-.22-.33-.45-.42-.71-.09-.25-.14-.52-.14-.8L2.02,9.87c.03-.53.23-.98.61-1.34.38-.36.83-.54,1.36-.54h6.91c.19-.59.38-1.17.59-1.74s.43-1.1.68-1.6c.75-1.5,1.64-2.66,2.66-3.45,1.02-.8,2.09-1.2,3.22-1.2s2.2.4,3.22,1.2c1.02.8,1.9,1.95,2.66,3.45.25.5.48,1.03.68,1.6s.4,1.14.59,1.74h6.91c.53,0,.99.18,1.36.54.38.36.58.81.61,1.34l2.02,32.1ZM4.13,40.09h27.82l-1.74-28.06h-4.32c.06.47.11.96.14,1.46.03.5.05,1.02.05,1.55v3.01h-2.02v-3.01c0-.53-.02-1.05-.05-1.55-.03-.5-.06-.99-.09-1.46h-11.7c-.06.47-.11.96-.14,1.46-.03.5-.05,1.02-.05,1.55v3.01h-2.02v-3.01c0-.53.01-1.05.05-1.55.03-.5.08-.99.14-1.46h-4.32l-1.74,28.06ZM13.96,5.55c-.19.38-.36.77-.52,1.17-.16.41-.3.83-.42,1.27h10.06c-.12-.44-.27-.86-.42-1.27-.16-.41-.33-.8-.52-1.17-.6-1.13-1.25-2-1.95-2.63-.71-.63-1.42-.94-2.14-.94s-1.43.31-2.14.94c-.71.63-1.36,1.5-1.95,2.63Z" style="fill: #fff;"/>
  </g>
</svg>