<?xml version="1.0" encoding="UTF-8"?>
<svg id="Layer_2" data-name="Layer 2" xmlns="http://www.w3.org/2000/svg" viewBox="0 0 36.09 40.13">
  <g id="Layer_1-2" data-name="Layer 1">
    <path d="M33.51,30.22c1.28,1.32,2.04,2.69,2.26,4.14.22,1.44.33,2.69.33,3.76v.99c0,.28-.1.52-.31.73-.2.2-.43.31-.68.31H.99c-.25,0-.48-.1-.68-.31-.2-.2-.3-.45-.3-.73v-.99c0-1.03.11-2.28.33-3.74.22-1.46.97-2.84,2.26-4.16.69-.69,1.53-1.29,2.51-1.81.99-.52,2.12-.95,3.41-1.29,1.28-.34,2.72-.6,4.3-.78,1.58-.17,3.33-.26,5.24-.26s3.66.09,5.24.26c1.58.17,3.01.43,4.3.78,1.28.35,2.42.78,3.41,1.29.99.52,1.82,1.12,2.51,1.81ZM3.99,38.11h28.1c0-.88-.06-1.76-.19-2.66-.12-.89-.55-1.7-1.27-2.42-.41-.41-.94-.78-1.6-1.13s-1.41-.64-2.26-.89c-1.13-.31-2.42-.55-3.88-.7-1.46-.16-3.08-.23-4.86-.23s-3.41.08-4.86.23c-1.46.16-2.75.39-3.88.7-.85.25-1.6.55-2.26.89s-1.19.72-1.6,1.13c-.72.72-1.14,1.53-1.27,2.42-.12.89-.19,1.78-.19,2.66ZM13.37,23.12c-1.46-.63-2.73-1.48-3.83-2.56-1.1-1.08-1.96-2.36-2.58-3.83-.63-1.47-.94-3.04-.94-4.7s.31-3.22.94-4.68c.63-1.46,1.49-2.73,2.58-3.81s2.37-1.94,3.83-2.58c1.46-.64,3.02-.96,4.68-.96s3.22.32,4.68.96c1.46.64,2.73,1.5,3.83,2.58s1.96,2.35,2.58,3.81c.63,1.46.94,3.02.94,4.68s-.31,3.23-.94,4.7c-.63,1.47-1.49,2.75-2.58,3.83-1.1,1.08-2.37,1.94-3.83,2.56-1.46.63-3.02.94-4.68.94s-3.22-.31-4.68-.94ZM18.04,4.04c-2.22,0-4.12.78-5.69,2.35-1.57,1.57-2.35,3.45-2.35,5.64s.78,4.12,2.35,5.69c1.57,1.57,3.46,2.35,5.69,2.35s4.12-.78,5.69-2.35c1.57-1.57,2.35-3.46,2.35-5.69s-.78-4.07-2.35-5.64c-1.57-1.57-3.46-2.35-5.69-2.35Z" style="fill: #fff;"/>
  </g>
</svg>