<?xml version="1.0" encoding="UTF-8"?>
<svg id="Layer_2" data-name="Layer 2" xmlns="http://www.w3.org/2000/svg" viewBox="0 0 392.4 131.28">
  <g id="Layer_1-2" data-name="Layer 1">
    <g>
      <path d="M105.32,128.65c-3.29.99-7.39.49-9.53-2.14L16.43,31.05v90.04c0,4.6-3.61,8.22-8.22,8.22s-8.21-3.62-8.21-8.22V8.38C0,4.93,2.14,1.81,5.42.66c3.29-1.15,6.9-.16,9.04,2.46l79.53,95.3V8.22c0-4.6,3.62-8.22,8.22-8.22s8.22,3.61,8.22,8.22v113.05c0,3.45-1.64,6.41-5.09,7.39Z" style="fill: #f4f4f4;"/>
      <path d="M194.37,131.28c-12,0-22.35-2.46-30.73-7.39-7.23-4.11-12.82-9.86-16.92-17.25-6.74-12.49-6.74-25.47-6.74-29.74V8.38c0-4.44,3.78-8.22,8.22-8.22s8.22,3.78,8.22,8.22v68.52c0,3.29,0,13.14,4.76,21.85,2.63,4.77,6.08,8.38,10.68,11.01,5.75,3.29,13.31,5.09,22.51,5.09s16.76-1.81,22.51-5.09c4.44-2.63,8.05-6.24,10.52-10.84,4.77-8.87,4.77-18.73,4.77-22.02V8.38c0-4.44,3.78-8.22,8.22-8.22s8.22,3.78,8.22,8.22v68.52c0,4.27,0,17.42-6.74,29.74-6.08,11.34-19.22,24.65-47.48,24.65Z" style="fill: #f4f4f4;"/>
      <path d="M387.59,128.65c-3.78,1.64-8.71.33-11.01-4.11l-11.34-25.3c-10.68-2.63-21.36-2.79-31.71-.49-8.38,1.64-16.6,4.77-24.65,9.69-8.22,5.09-16.76,11.83-23,17.91-3.12,3.12-7.23,4.11-10.68,1.97-3.61-2.3-3.12-6.9-1.48-10.68L325.65,4.93c1.48-2.96,4.27-4.77,7.56-4.77s6.24,1.97,7.39,4.77l51.1,112.72c1.81,4.27,0,9.04-4.11,11.01ZM333.04,28.1l-31.55,67.2c8.71-4.93,20.21-9.37,29.41-11.17,8.87-1.97,17.91-2.3,26.95-1.48l-24.81-54.55Z" style="fill: #f4f4f4;"/>
    </g>
  </g>
</svg>