<?xml version="1.0" encoding="UTF-8"?>
<svg id="Layer_2" data-name="Layer 2" xmlns="http://www.w3.org/2000/svg" viewBox="0 0 169.51 169.51">
  <g id="Layer_1-2" data-name="Layer 1">
    <g>
      <path d="M83.66,0C36.9.61-.6,39.09,0,85.85c.61,46.76,39.09,84.25,85.84,83.65,46.76-.61,84.25-39.09,83.65-85.84C168.89,36.9,130.42-.6,83.66,0ZM83.7,3.69c44.82-.58,81.53,35.2,82.11,80.01.58,44.82-35.2,81.53-80.01,82.11-44.82.58-81.53-35.2-82.11-80.01C3.11,40.99,38.89,4.27,83.7,3.69Z" style="fill: #f3f3f3;"/>
      <g>
        <path d="M78.91,69.03c-2.35,4.35-3.58,8.53-3.86,12.37,1.85,1.51,3.59,3.21,5.17,5.12,3.66-6.67,10.28-15.19,21.72-20.59,0,0-12.2,7.1-17.93,26.25,1.37,2.6,2.25,5.21,2.63,7.73.22.12.44.22.63.28,11.82,4,24.76-7.14,26.07-23.53,2.3-28.85,12.73-36.47,12.73-36.47,0,0-34.1,4.68-47.16,28.84Z" style="fill: #f3f3f3;"/>
        <path d="M81.29,91.26c-11.07-17.81-37.27-19.79-37.27-19.79,0,0,6.84,2.38,10.02,26.33,1.65,12.44,12.89,18.92,22.33,17.58,1.63-.23,3.03-.53,4.36.38.59.4,2.08,3.4,2.73,5.32l.33-.85c.29-.74.34-1.55.1-2.31-5.16-16.67-20.3-27.96-20.3-27.96,12.03,4.8,17.71,14.29,19.91,19.1,2.42-4.71,1.95-11.1-2.21-17.8Z" style="fill: #f3f3f3;"/>
        <path d="M85.35,132.52c-12.77.17-24.83-4.65-33.97-13.56-9.14-8.91-14.27-20.85-14.44-33.61-.17-12.77,4.65-24.83,13.56-33.97,8.91-9.14,20.84-14.27,33.61-14.44,7.92-.1,15.79,1.77,22.76,5.42.41.21.57.72.35,1.13-.22.41-.72.57-1.13.35-6.72-3.52-14.32-5.33-21.96-5.24-25.43.33-45.85,21.29-45.52,46.71.33,25.43,21.29,45.85,46.71,45.52,25.43-.33,45.85-21.28,45.52-46.71-.14-10.78-4.08-21.22-11.08-29.4-.3-.35-.26-.88.09-1.18.35-.3.88-.26,1.18.09,7.26,8.47,11.34,19.29,11.48,30.46.17,12.76-4.65,24.83-13.56,33.97-8.91,9.14-20.84,14.27-33.61,14.44Z" style="fill: #f3f3f3;"/>
      </g>
      <g>
        <path d="M24.38,92.37c.2,1.39.07,2.69-.37,3.9-.44,1.2-1.15,2.2-2.13,2.99-.98.78-2.15,1.27-3.5,1.47-1.34.19-2.6.05-3.76-.43-1.16-.49-2.13-1.25-2.88-2.29-.76-1.04-1.23-2.27-1.43-3.67-.16-1.17-.11-2.27.17-3.28.28-1.01.76-1.9,1.44-2.65l2.15,1.75c-.92,1.07-1.29,2.28-1.11,3.64.13.85.42,1.57.88,2.18s1.05,1.05,1.77,1.33c.71.28,1.49.35,2.33.24.84-.12,1.57-.41,2.18-.86.6-.47,1.05-1.06,1.33-1.77.28-.71.36-1.49.24-2.34-.18-1.36-.88-2.42-2.1-3.2l1.58-2.28c.88.54,1.6,1.26,2.15,2.16.55.9.91,1.94,1.08,3.12Z" style="fill: #f3f3f3;"/>
        <path d="M21.93,73.33l2.54.23-.98,10.59-13.68-1.27.95-10.34,2.54.23-.66,7.19,2.96.28.58-6.35,2.46.23-.58,6.35,3.18.29.69-7.44Z" style="fill: #f3f3f3;"/>
        <path d="M27.91,62.32l-4.47,1.28-.05.15-.9,2.64,3.63,1.23-1.01,3-13.02-4.4,1.91-5.64c.38-1.15.91-2.08,1.58-2.8.67-.73,1.44-1.19,2.31-1.41.86-.22,1.76-.17,2.72.15.98.33,1.74.84,2.28,1.55.54.7.85,1.54.94,2.51l5.17-1.5-1.09,3.24ZM19.58,59.58c-.73-.25-1.36-.2-1.91.14-.54.34-.97.96-1.28,1.86l-.83,2.47,4.53,1.53.83-2.47c.31-.91.34-1.66.1-2.27-.24-.61-.72-1.03-1.45-1.27Z" style="fill: #f3f3f3;"/>
        <path d="M22.39,48.41l-2.3,3.75-2.21-1.37,6.28-10.2,2.21,1.37-2.3,3.73,9.5,5.84-1.68,2.72-9.5-5.84Z" style="fill: #f3f3f3;"/>
        <path d="M27.35,36.86l2.09-2.39,10.35,9.04-2.09,2.39-10.35-9.04Z" style="fill: #f3f3f3;"/>
        <path d="M37.98,29.77l2.31,2.82,4.94-4.02,1.61,1.98-4.94,4.02,3.16,3.88-2.47,2.01-8.68-10.66,8.05-6.56,1.61,1.97-5.58,4.55Z" style="fill: #f3f3f3;"/>
        <path d="M46.6,20.52l2.77-1.56,6.75,11.97-2.77,1.56-6.75-11.97Z" style="fill: #f3f3f3;"/>
        <path d="M68.92,23.02l.84,2.41-10.02,3.54-4.56-12.95,9.78-3.46.84,2.39-6.81,2.4.99,2.83,6.03-2.12.83,2.33-6.03,2.12,1.06,3,7.04-2.48Z" style="fill: #f3f3f3;"/>
        <path d="M71.35,11.02l6.21-.57c1.49-.13,2.84.03,4.03.49,1.19.46,2.15,1.17,2.87,2.14.73.97,1.16,2.15,1.28,3.52.12,1.37-.08,2.6-.62,3.69-.53,1.08-1.34,1.96-2.42,2.63-1.09.68-2.38,1.09-3.87,1.22l-6.21.57-1.27-13.69ZM78.42,21.55c1.38-.12,2.44-.61,3.18-1.45.74-.84,1.05-1.91.93-3.21-.12-1.31-.63-2.3-1.51-2.98-.88-.69-2-.97-3.38-.85l-2.89.26.79,8.49,2.89-.26Z" style="fill: #f3f3f3;"/>
        <path d="M102.11,26.64c-1.36-.42-2.5-1.08-3.42-2-.92-.91-1.55-1.97-1.86-3.19-.31-1.22-.27-2.49.12-3.79.38-1.29,1.03-2.35,1.96-3.2.93-.85,2.04-1.41,3.31-1.68,1.28-.26,2.6-.19,3.96.23,1.37.41,2.51,1.07,3.42,1.99.91.92,1.53,1.99,1.85,3.22.31,1.22.28,2.47-.1,3.76-.39,1.3-1.05,2.37-1.99,3.21-.94.85-2.04,1.41-3.31,1.66-1.26.26-2.58.19-3.95-.21ZM102.89,24.05c.78.23,1.54.25,2.27.08.73-.18,1.37-.53,1.92-1.06.55-.53.95-1.2,1.2-2.01.25-.82.28-1.6.12-2.35-.17-.75-.52-1.39-1.03-1.94-.52-.54-1.17-.93-1.95-1.16-.77-.24-1.53-.27-2.26-.1-.73.17-1.37.52-1.92,1.06-.55.53-.95,1.2-1.2,2.02-.25.81-.28,1.59-.12,2.34.17.74.51,1.39,1.03,1.94.52.55,1.17.95,1.94,1.18Z" style="fill: #f3f3f3;"/>
        <path d="M119.24,34.47l-.26-4.64-.13-.09-2.37-1.44-2,3.27-2.7-1.65,7.18-11.72,5.07,3.09c1.03.63,1.83,1.36,2.38,2.17.56.82.85,1.67.87,2.56.03.89-.22,1.77-.75,2.64-.54.87-1.21,1.5-2.02,1.87-.8.37-1.69.49-2.65.35l.31,5.37-2.92-1.78ZM123.77,26.98c.4-.66.49-1.29.28-1.9-.2-.61-.71-1.18-1.52-1.68l-2.22-1.35-2.51,4.1,2.22,1.35c.81.5,1.54.71,2.19.61.64-.1,1.17-.48,1.57-1.12Z" style="fill: #f3f3f3;"/>
        <path d="M135.74,39.66l2.03,2.08-3.99,3.89c-.93-.13-1.85-.45-2.75-.95-.9-.49-1.7-1.09-2.39-1.8-1.01-1.02-1.69-2.16-2.05-3.4-.35-1.24-.37-2.46-.05-3.68.32-1.22.97-2.3,1.94-3.25.97-.95,2.07-1.57,3.3-1.86,1.22-.3,2.46-.25,3.69.15,1.24.4,2.37,1.12,3.37,2.15.84.87,1.46,1.79,1.85,2.78.39.98.55,1.97.46,2.99l-2.78-.14c.06-1.42-.39-2.62-1.36-3.62-.62-.63-1.3-1.06-2.03-1.29-.74-.23-1.48-.25-2.23-.05-.74.19-1.42.58-2.03,1.18-.6.59-1.02,1.26-1.24,1.99-.21.75-.22,1.49-.01,2.23.2.75.61,1.43,1.21,2.06.65.66,1.36,1.1,2.15,1.34l2.88-2.81Z" style="fill: #f3f3f3;"/>
        <path d="M141.73,55.74l-3.18-5.54-3.17.41-1.62-2.82,14.96-1.55,1.56,2.73-8.84,12.18-1.67-2.9,1.96-2.52ZM143.32,53.66l3.47-4.49-5.65.71,2.17,3.78Z" style="fill: #f3f3f3;"/>
        <path d="M158.5,71.44l-13.27,3.58-.68-2.5,6.27-8.8-8.06,2.18-.81-3.03,13.27-3.58.68,2.54-6.29,8.78,8.06-2.18.82,3.02Z" style="fill: #f3f3f3;"/>
        <path d="M159.14,78.09l.21,3.16-13.7.95-.21-3.16,13.7-.95Z" style="fill: #f3f3f3;"/>
        <path d="M144.95,92.76c.16-1.39.6-2.62,1.33-3.68.74-1.06,1.68-1.84,2.82-2.36,1.15-.51,2.41-.69,3.76-.53,1.35.15,2.52.6,3.52,1.36,1,.76,1.74,1.74,2.22,2.93.47,1.2.63,2.5.48,3.91-.14,1.18-.47,2.22-1.01,3.13-.53.91-1.21,1.65-2.06,2.22l-1.65-2.25c1.16-.81,1.83-1.89,1.99-3.25.1-.85,0-1.63-.3-2.33-.29-.7-.75-1.27-1.38-1.72-.62-.44-1.35-.71-2.19-.81-.84-.11-1.62-.01-2.33.28-.71.3-1.28.76-1.73,1.38-.44.62-.71,1.36-.81,2.21-.16,1.36.25,2.57,1.23,3.61l-2.1,1.82c-.73-.74-1.24-1.62-1.55-2.64-.31-1.01-.39-2.1-.26-3.29Z" style="fill: #f3f3f3;"/>
        <path d="M153.9,113.11l-1.26,2.91-12.6-5.47,1.26-2.91,12.6,5.47Z" style="fill: #f3f3f3;"/>
        <path d="M142.68,132.43l-11.32-7.79,1.47-2.14,10.77-.92-6.87-4.73,1.77-2.59,11.32,7.79-1.49,2.17-10.76.9,6.87,4.73-1.77,2.59Z" style="fill: #f3f3f3;"/>
        <path d="M126.48,138.7l-2.21,1.9-3.63-4.24c.2-.92.57-1.81,1.12-2.68.55-.87,1.2-1.62,1.95-2.26,1.09-.94,2.26-1.54,3.52-1.82,1.26-.28,2.49-.21,3.68.18,1.2.4,2.25,1.12,3.13,2.15.88,1.03,1.43,2.17,1.64,3.42.21,1.25.08,2.47-.4,3.68-.47,1.21-1.26,2.28-2.35,3.22-.91.78-1.87,1.34-2.89,1.67-1.01.33-2.02.42-3.01.28l.3-2.75c1.43.14,2.67-.24,3.73-1.15.66-.58,1.13-1.22,1.41-1.94.27-.71.33-1.45.18-2.21-.14-.76-.49-1.47-1.05-2.12-.55-.64-1.18-1.09-1.9-1.34-.73-.26-1.47-.31-2.23-.16-.76.15-1.47.51-2.12,1.08-.7.6-1.19,1.28-1.49,2.05l2.62,3.06Z" style="fill: #f3f3f3;"/>
        <path d="M109.01,140.88l4.08,2.26.13-.07,2.49-1.24-1.7-3.43,2.84-1.42,6.12,12.31-5.33,2.66c-1.08.54-2.11.82-3.1.86-.99.04-1.87-.17-2.64-.63-.77-.45-1.38-1.13-1.83-2.03-.45-.92-.62-1.82-.51-2.7.1-.88.48-1.7,1.11-2.46l-4.72-2.58,3.06-1.53ZM112.96,148.7c.35.69.83,1.1,1.46,1.26.62.15,1.36.01,2.21-.41l2.34-1.16-2.13-4.29-2.34,1.16c-.85.43-1.41.93-1.67,1.52-.26.59-.22,1.24.12,1.92Z" style="fill: #f3f3f3;"/>
        <path d="M93.52,148.04l-.58-2.49,10.36-2.4,3.11,13.38-10.11,2.35-.58-2.48,7.03-1.63-.68-2.91-6.22,1.45-.56-2.41,6.22-1.45-.72-3.1-7.28,1.69Z" style="fill: #f3f3f3;"/>
        <path d="M89.78,159.69l-6.24-.12c-1.49-.03-2.81-.33-3.94-.92-1.13-.58-2-1.39-2.61-2.45-.61-1.05-.91-2.26-.88-3.63.03-1.38.36-2.58,1.02-3.6.65-1.02,1.55-1.81,2.7-2.36,1.15-.55,2.48-.81,3.97-.78l6.24.12-.26,13.73ZM83.91,148.47c-1.38-.03-2.49.33-3.32,1.08-.83.75-1.25,1.79-1.27,3.1-.03,1.31.36,2.35,1.17,3.13.8.79,1.89,1.19,3.27,1.22l2.91.06.16-8.53-2.91-.06Z" style="fill: #f3f3f3;"/>
        <path d="M70.27,158.2l-3.1-.68,2.93-13.42,3.1.68-2.93,13.42Z" style="fill: #f3f3f3;"/>
        <path d="M55.29,141.48l.97-2.36,9.84,4.04-5.23,12.71-9.61-3.95.98-2.35,6.69,2.75,1.13-2.76-5.91-2.43.94-2.3,5.91,2.43,1.21-2.94-6.91-2.84Z" style="fill: #f3f3f3;"/>
        <path d="M35.35,141.35l8.14-11.07,2.1,1.54.58,10.8,4.94-6.73,2.53,1.85-8.14,11.07-2.12-1.55-.56-10.77-4.94,6.72-2.53-1.85Z" style="fill: #f3f3f3;"/>
        <path d="M30.57,132.6l2.83,3.35-1.98,1.67-7.73-9.14,1.98-1.67,2.84,3.35,8.52-7.19,2.05,2.44-8.52,7.19Z" style="fill: #f3f3f3;"/>
        <path d="M31.11,113.52c.51.96.87,1.95,1.09,2.99.21,1.03.25,1.93.13,2.71l-2.61.15c.1-.72.07-1.49-.08-2.34-.15-.84-.42-1.61-.8-2.33-.43-.8-.85-1.32-1.28-1.58-.43-.26-.85-.28-1.24-.08-.29.16-.47.4-.55.72-.08.32-.07.69,0,1.1.07.42.2.96.38,1.64.27,1.04.46,1.92.55,2.62.09.71,0,1.4-.25,2.07-.26.67-.79,1.23-1.61,1.67-.7.37-1.44.52-2.21.44-.77-.08-1.53-.41-2.27-.99-.75-.58-1.42-1.44-2.01-2.55-.41-.77-.73-1.58-.93-2.42-.21-.84-.29-1.62-.23-2.36l2.6-.29c-.04,1.47.23,2.77.82,3.88.42.79.85,1.3,1.31,1.54.45.24.89.25,1.31.02.42-.22.61-.6.58-1.14-.02-.54-.18-1.31-.47-2.3-.27-1.03-.45-1.9-.54-2.61-.1-.72-.02-1.41.23-2.07.24-.67.77-1.23,1.58-1.67.7-.37,1.43-.51,2.21-.43.78.08,1.55.42,2.3,1.02.74.59,1.41,1.45,2,2.56Z" style="fill: #f3f3f3;"/>
      </g>
    </g>
  </g>
</svg>