<?xml version="1.0" encoding="UTF-8"?>
<svg id="Layer_2" data-name="Layer 2" xmlns="http://www.w3.org/2000/svg" viewBox="0 0 188.07 106.07">
  <g id="Layer_1-2" data-name="Layer 1">
    <g>
      <g>
        <path d="M50.48,61.66c-1.57.47-3.54.24-4.57-1.02L7.87,14.88v43.16c0,2.2-1.73,3.94-3.94,3.94s-3.94-1.73-3.94-3.94V4.02C0,2.36,1.02.87,2.6.32c1.57-.55,3.31-.08,4.33,1.18l38.12,45.68V3.94c0-2.21,1.73-3.94,3.94-3.94s3.94,1.73,3.94,3.94v54.18c0,1.65-.79,3.07-2.44,3.54Z" style="fill: #f3f3f3;"/>
        <path d="M93.16,62.92c-5.75,0-10.71-1.18-14.73-3.54-3.46-1.97-6.14-4.73-8.11-8.27-3.23-5.98-3.23-12.21-3.23-14.25V4.02c0-2.13,1.81-3.94,3.94-3.94s3.94,1.81,3.94,3.94v32.84c0,1.58,0,6.3,2.28,10.47,1.26,2.28,2.91,4.02,5.12,5.28,2.76,1.58,6.38,2.44,10.79,2.44s8.03-.87,10.79-2.44c2.13-1.26,3.86-2.99,5.04-5.2,2.28-4.25,2.28-8.98,2.28-10.55V4.02c0-2.13,1.81-3.94,3.94-3.94s3.94,1.81,3.94,3.94v32.84c0,2.05,0,8.35-3.23,14.25-2.91,5.43-9.21,11.81-22.76,11.81Z" style="fill: #f3f3f3;"/>
        <path d="M185.77,61.66c-1.81.79-4.17.16-5.28-1.97l-5.43-12.13c-5.12-1.26-10.24-1.34-15.2-.24-4.02.79-7.95,2.28-11.81,4.65-3.94,2.44-8.03,5.67-11.03,8.58-1.5,1.5-3.47,1.97-5.12.95-1.73-1.1-1.5-3.31-.71-5.12L156.08,2.36c.71-1.42,2.05-2.28,3.62-2.28s2.99.95,3.54,2.28l24.49,54.02c.87,2.05,0,4.33-1.97,5.28ZM159.62,13.47l-15.12,32.21c4.17-2.36,9.69-4.49,14.1-5.36,4.25-.95,8.58-1.1,12.92-.71l-11.89-26.15Z" style="fill: #f3f3f3;"/>
      </g>
      <g>
        <path d="M43.15,106.07c-.79,0-1.51-.13-2.15-.39-.64-.26-1.19-.65-1.64-1.16-.46-.52-.8-1.16-1.05-1.93-.24-.77-.36-1.65-.36-2.67s.12-1.92.36-2.7c.24-.79.59-1.45,1.05-1.99.46-.53,1-.94,1.64-1.22.64-.28,1.36-.41,2.15-.41,1.09,0,1.98.23,2.7.69.71.46,1.29,1.16,1.71,2.09l-1.95,1.04c-.17-.54-.46-.98-.85-1.31-.39-.33-.93-.49-1.61-.49-.85,0-1.53.29-2.03.87-.5.57-.75,1.38-.75,2.42v1.9c0,1.05.25,1.85.75,2.41.5.56,1.18.84,2.03.84.68,0,1.24-.19,1.67-.55.43-.37.75-.82.94-1.36l1.85,1.09c-.44.9-1.02,1.6-1.75,2.1s-1.63.75-2.71.75Z" style="fill: #f3f3f3;"/>
        <path d="M63.41,106.07c-.8,0-1.52-.13-2.16-.4-.65-.26-1.2-.66-1.65-1.19-.46-.53-.81-1.18-1.06-1.95s-.38-1.67-.38-2.7.12-1.91.38-2.69c.25-.78.61-1.43,1.06-1.96.46-.53,1.01-.93,1.65-1.19.64-.26,1.36-.4,2.16-.4s1.51.13,2.16.4c.64.26,1.2.66,1.66,1.19.46.53.82,1.18,1.06,1.96.25.78.37,1.67.37,2.69s-.12,1.93-.37,2.7c-.25.77-.6,1.42-1.06,1.95-.46.53-1.02.93-1.66,1.19-.65.26-1.37.4-2.16.4ZM63.41,104.05c.86,0,1.55-.29,2.06-.87.51-.57.77-1.38.77-2.42v-1.86c0-1.04-.26-1.85-.77-2.42-.51-.58-1.2-.87-2.06-.87s-1.55.29-2.07.87c-.51.57-.77,1.38-.77,2.42v1.86c0,1.04.26,1.85.77,2.42.51.58,1.2.87,2.07.87Z" style="fill: #f3f3f3;"/>
        <path d="M80.3,105.86v-12.06h2.28v10.04h4.75v2.02h-7.03Z" style="fill: #f3f3f3;"/>
        <path d="M102.73,106.07c-.79,0-1.51-.13-2.16-.4-.64-.26-1.19-.66-1.65-1.19-.46-.53-.81-1.18-1.06-1.95-.25-.77-.38-1.67-.38-2.7s.13-1.91.38-2.69c.25-.78.61-1.43,1.06-1.96.46-.53,1.01-.93,1.65-1.19.65-.26,1.37-.4,2.16-.4s1.52.13,2.16.4c.65.26,1.2.66,1.66,1.19.46.53.82,1.18,1.06,1.96.25.78.37,1.67.37,2.69s-.12,1.93-.37,2.7-.6,1.42-1.06,1.95c-.46.53-1.01.93-1.66,1.19-.64.26-1.36.4-2.16.4ZM102.73,104.05c.87,0,1.55-.29,2.06-.87.52-.57.77-1.38.77-2.42v-1.86c0-1.04-.25-1.85-.77-2.42-.51-.58-1.2-.87-2.06-.87s-1.55.29-2.06.87c-.51.57-.77,1.38-.77,2.42v1.86c0,1.04.25,1.85.77,2.42.51.58,1.2.87,2.06.87Z" style="fill: #f3f3f3;"/>
        <path d="M121.8,93.8v7.41c0,.95.18,1.65.54,2.13.37.47.98.71,1.85.71s1.47-.24,1.84-.71c.36-.47.55-1.18.55-2.13v-7.41h2.24v7.12c0,.89-.08,1.65-.25,2.3-.16.64-.43,1.18-.8,1.61-.37.43-.85.74-1.44.94-.6.2-1.31.3-2.15.3s-1.58-.1-2.15-.3-1.06-.51-1.42-.94c-.37-.42-.64-.96-.8-1.61-.16-.65-.24-1.41-.24-2.3v-7.12h2.25Z" style="fill: #f3f3f3;"/>
        <path d="M143.18,105.86h-2.28v-12.06h5.45c.55,0,1.05.09,1.49.26.44.17.81.42,1.11.75.3.33.54.72.71,1.18.17.46.25.97.25,1.54,0,.83-.19,1.54-.56,2.14-.38.6-.94,1.03-1.69,1.28l2.48,4.91h-2.54l-2.24-4.65h-2.16v4.65ZM146.11,99.29c.44,0,.78-.12,1.04-.35s.38-.57.38-1.01v-.8c0-.44-.13-.77-.38-1s-.6-.35-1.04-.35h-2.94v3.51h2.94Z" style="fill: #f3f3f3;"/>
      </g>
    </g>
  </g>
</svg>